# xmcd
#
# Track frame offsets:
# 150
# 16246
# 29962
# 41612
# 54643
# 75987
# 92807
# 106754
# 117351
# 133446
# 145855
# 161273
#
# Disc length: 2369 seconds
#
#
# Revision: 0
# Processed by: cddbd v1.5.2PL0 Copyright (c) Steve Scherf et al.
# Submitted via: FreeRIP 2.951 
#
DISCID=9d093f0c
DTITLE=Ney and Ray - Cachaça
DYEAR=1900
DGENRE=Sertanejo
TTITLE0=Saudade Dói
TTITLE1=Tô Fora
TTITLE2=Solidão sai de mim
TTITLE3=Cheia de Moral
TTITLE4=Paixão Inesperada
TTITLE5=Cachaça
TTITLE6=Bota Amor no Coração
TTITLE7=Xô Solidão
TTITLE8=Mulher Casada
TTITLE9=Mulher da Pá Virada
TTITLE10=Eu Quero Ver
TTITLE11=Cachaça
EXTD=
EXTT0=
EXTT1=
EXTT2=
EXTT3=
EXTT4=
EXTT5=
EXTT6=
EXTT7=
EXTT8=
EXTT9=
EXTT10=
EXTT11=
PLAYORDER=
